<?xml version="1.0" encoding="UTF-8" standalone="no"?>
<!-- Created with Inkscape (http://www.inkscape.org/) -->

<svg
   width="101.14518mm"
   height="22.923012mm"
   viewBox="0 0 101.14518 22.923012"
   version="1.1"
   id="svg1"
   sodipodi:docname="drawing.svg"
   inkscape:version="1.4.2 (ebf0e940d0, 2025-05-08)"
   xml:space="preserve"
   xmlns:inkscape="http://www.inkscape.org/namespaces/inkscape"
   xmlns:sodipodi="http://sodipodi.sourceforge.net/DTD/sodipodi-0.dtd"
   xmlns:xlink="http://www.w3.org/1999/xlink"
   xmlns="http://www.w3.org/2000/svg"
   xmlns:svg="http://www.w3.org/2000/svg"><sodipodi:namedview
     id="namedview1"
     pagecolor="#ffffff"
     bordercolor="#000000"
     borderopacity="0.25"
     inkscape:showpageshadow="2"
     inkscape:pageopacity="0.0"
     inkscape:pagecheckerboard="0"
     inkscape:deskcolor="#d1d1d1"
     inkscape:document-units="mm"
     inkscape:zoom="0.94615212"
     inkscape:cx="1685.7754"
     inkscape:cy="218.25243"
     inkscape:window-width="1920"
     inkscape:window-height="954"
     inkscape:window-x="0"
     inkscape:window-y="32"
     inkscape:window-maximized="1"
     inkscape:current-layer="layer1"><inkscape:page
       x="0"
       y="0"
       width="101.14518"
       height="22.923012"
       id="page2"
       margin="0"
       bleed="0" /></sodipodi:namedview><defs
     id="defs1"><linearGradient
       id="linearGradient42"
       inkscape:collect="always"><stop
         style="stop-color:#186178;stop-opacity:1;"
         offset="0"
         id="stop41" /><stop
         style="stop-color:#58dede;stop-opacity:1;"
         offset="1"
         id="stop42" /></linearGradient><linearGradient
       id="linearGradient27"
       inkscape:collect="always"><stop
         style="stop-color:#16b8bc;stop-opacity:1;"
         offset="0"
         id="stop27" /><stop
         style="stop-color:#078484;stop-opacity:1;"
         offset="1"
         id="stop28" /></linearGradient><linearGradient
       inkscape:collect="always"
       xlink:href="#linearGradient27"
       id="linearGradient32"
       gradientUnits="userSpaceOnUse"
       gradientTransform="matrix(1.0163824,0,0,0.87100474,89.197764,-148.23449)"
       x1="328.94769"
       y1="247.33968"
       x2="348.03394"
       y2="237.8203" /><linearGradient
       inkscape:collect="always"
       xlink:href="#linearGradient42"
       id="linearGradient34"
       gradientUnits="userSpaceOnUse"
       x1="334.07086"
       y1="238.70747"
       x2="360.2916"
       y2="238.70747"
       gradientTransform="matrix(0.4597331,0,0,0.4597331,294.34728,-60.274843)" /></defs><g
     inkscape:label="Layer 1"
     inkscape:groupmode="layer"
     id="layer1"
     transform="translate(-358.8401,-43.451548)"><g
       id="g37"
       transform="translate(-39.475925,5.379395)"><path
         style="fill:#000000;fill-opacity:1;stroke-width:0.264583"
         d="m 479.31749,47.107003 h 2.79363 l 2.60863,3.61166 -1.35806,1.75959 z"
         id="path29"
         sodipodi:nodetypes="ccccc" /></g><path
       id="path32"
       style="fill:url(#linearGradient32);fill-opacity:1;stroke-width:0.294314"
       d="m 452.67213,50.796899 c -14.24329,15.558431 -9.21969,14.117275 -65.6606,15.46513 l 49.60918,0.09002 12.40633,0.02251 c 0,0 -7.16493,-2.334824 3.64509,-15.577656 z"
       sodipodi:nodetypes="cccccc" /><g
       id="g42"
       style="fill:#8f8f8f;fill-opacity:1"><path
         style="fill:#8f8f8f;fill-opacity:1;stroke-width:0.264583"
         d="m 479.31749,47.107003 h 2.79363 l 3.56261,4.904443 -1.55817,1.517281 z"
         id="path39"
         sodipodi:nodetypes="ccccc"
         transform="translate(-39.475926,5.3793951)" /><path
         style="fill:#8f8f8f;fill-opacity:1;stroke-width:0.264583"
         d="m 489.69296,60.959693 h 2.80913 l -5.15545,-7.195125 c 0,0 -0.3269,0.52444 -0.5439,1.317072 -0.25649,0.936899 -0.21182,1.386983 -0.21182,1.386983 z"
         id="path40"
         sodipodi:nodetypes="cccscc"
         transform="translate(-39.475926,5.3793951)" /><path
         id="path33"
         style="font-size:15.4343px;text-align:start;writing-mode:lr-tb;direction:ltr;text-anchor:start;fill:#8f8f8f;fill-opacity:1;stroke-width:1.28619"
         d="m 358.84011,52.486202 v 10.881506 h 7.26984 v -1.960087 h -4.86172 v -8.921419 z m 42.83046,0 v 10.881506 h 2.33061 v -4.244702 c 0,-0.51448 0.1439,-0.92586 0.43201,-1.23455 0.29839,-0.30869 0.68945,-0.463021 1.17306,-0.463021 0.40129,0 0.69431,0.118357 0.87953,0.355017 0.1955,0.23666 0.29353,0.612077 0.29353,1.126547 v 4.460709 h 2.3306 v -4.568713 c 0,-1.07011 -0.22159,-1.867342 -0.66404,-2.392102 -0.44245,-0.53506 -1.1161,-0.802535 -2.02158,-0.802535 -0.51448,0 -0.9827,0.102718 -1.40457,0.308508 -0.41159,0.1955 -0.75101,0.488533 -1.01854,0.879533 v -4.306197 z m 9.36842,0 v 10.881506 h 2.40761 v -4.090189 h 2.59312 c 1.1833,0 2.10409,-0.298246 2.76262,-0.895036 0.65853,-0.5968 0.98806,-1.430513 0.98806,-2.500623 0,-1.07012 -0.32953,-1.903315 -0.98806,-2.500105 -0.65853,-0.59679 -1.57932,-0.895553 -2.76262,-0.895553 z m 23.66057,0 v 4.352706 c -0.22637,-0.391 -0.55016,-0.694459 -0.97203,-0.910539 -0.41158,-0.21608 -0.87459,-0.324011 -1.38906,-0.324011 -0.65853,0 -1.2399,0.159027 -1.74408,0.478007 -0.50419,0.31898 -0.90045,0.777276 -1.18856,1.374076 -0.27782,0.5865 -0.41651,1.270588 -0.41651,2.052588 0,0.78201 0.13869,1.476514 0.41651,2.083594 0.28811,0.59679 0.68437,1.065015 1.18856,1.404565 0.51447,0.32927 1.09584,0.494027 1.74408,0.494027 0.52476,0 0.99298,-0.107931 1.40456,-0.324011 0.42187,-0.22637 0.74567,-0.535559 0.97204,-0.926559 v 1.127063 h 2.3151 V 52.486202 Z m -21.25296,1.837097 h 2.28461 c 0.60708,0 1.05966,0.128266 1.35806,0.385506 0.29839,0.25724 0.44752,0.653498 0.44752,1.188558 0,1.03924 -0.6017,1.559078 -1.80558,1.559078 h -2.28461 z m -42.73744,1.281059 c -0.54535,0 -1.13714,0.0923 -1.77509,0.277502 -0.62766,0.17492 -1.15741,0.395996 -1.58957,0.663526 l 0.61754,1.559078 c 0.41158,-0.23666 0.84382,-0.421762 1.29656,-0.555522 0.45274,-0.13377 0.86413,-0.200504 1.23455,-0.200505 0.48361,0 0.82304,0.0923 1.01854,0.277503 0.19551,0.18522 0.29352,0.504307 0.29352,0.957047 v 0.27802 h -0.40152 c -1.09069,0 -1.94996,0.072 -2.57762,0.216007 -0.62766,0.14405 -1.08545,0.375551 -1.37356,0.694531 -0.27782,0.31898 -0.41652,0.755908 -0.41652,1.311548 0,0.45274 0.11836,0.864647 0.35502,1.235067 0.24694,0.37043 0.57596,0.65824 0.98754,0.86403 0.42187,0.2058 0.89008,0.309025 1.40456,0.309025 0.48361,0 0.90543,-0.107931 1.26556,-0.324011 0.36014,-0.22637 0.61771,-0.535559 0.77205,-0.926559 v 1.127063 h 2.2071 v -4.476212 c 0,-1.12156 -0.27269,-1.949553 -0.81804,-2.484603 -0.53505,-0.53506 -1.36877,-0.802535 -2.50062,-0.802535 z m 18.90685,0 c -0.53506,0 -1.0184,0.107931 -1.45056,0.324011 -0.42187,0.21608 -0.76651,0.529965 -1.03404,0.941545 V 55.78936 h -2.26911 v 7.578348 h 2.3306 v -4.244702 c 0,-0.51448 0.14443,-0.92586 0.43254,-1.23455 0.2984,-0.30869 0.68892,-0.463021 1.17253,-0.463021 0.40129,0 0.69484,0.118357 0.88005,0.355017 0.1955,0.23666 0.29301,0.612077 0.29301,1.126547 v 4.460709 h 2.33061 v -4.568713 c 0,-1.07011 -0.22108,-1.867342 -0.66353,-2.392102 -0.44245,-0.53506 -1.11663,-0.802535 -2.0221,-0.802535 z m 8.14937,0 c -0.81288,0 -1.52771,0.16425 -2.14508,0.49351 -0.61737,0.32927 -1.09603,0.797485 -1.43558,1.404565 -0.33956,0.59679 -0.50901,1.291304 -0.50901,2.083594 0,1.20388 0.35456,2.15595 1.06454,2.85564 0.70998,0.69969 1.68239,1.049548 2.91713,1.049548 0.58651,0 1.14231,-0.0824 1.66708,-0.247013 0.52476,-0.16464 0.957,-0.390919 1.29656,-0.679029 l -0.61753,-1.60507 c -0.29839,0.23666 -0.62741,0.421762 -0.98754,0.555522 -0.34985,0.12347 -0.695,0.185002 -1.03456,0.185002 -0.60708,0 -1.07999,-0.179879 -1.41955,-0.540019 -0.32926,-0.37042 -0.49403,-0.910593 -0.49403,-1.620573 0,-0.70998 0.16477,-1.24494 0.49403,-1.60507 0.33956,-0.36013 0.81247,-0.540535 1.41955,-0.540535 0.33956,0 0.68471,0.06669 1.03456,0.200504 0.36013,0.12347 0.68915,0.303886 0.98754,0.540536 l 0.61753,-1.590084 c -0.31898,-0.28811 -0.7361,-0.514399 -1.25057,-0.679029 -0.51448,-0.17492 -1.04944,-0.261999 -1.60507,-0.261999 z m 26.53172,0 c -0.54535,0 -1.13714,0.0923 -1.77509,0.277502 -0.62766,0.17492 -1.1574,0.395996 -1.58956,0.663526 l 0.61753,1.559078 c 0.41158,-0.23666 0.8433,-0.421762 1.29604,-0.555522 0.45274,-0.13377 0.86465,-0.200504 1.23507,-0.200505 0.48361,0 0.82304,0.0923 1.01854,0.277503 0.1955,0.18522 0.29353,0.504307 0.29353,0.957047 v 0.27802 h -0.40153 c -1.09069,0 -1.94996,0.072 -2.57762,0.216007 -0.62766,0.14405 -1.08545,0.375551 -1.37356,0.694531 -0.27782,0.31898 -0.41651,0.755908 -0.41651,1.311548 0,0.45274 0.11836,0.864647 0.35502,1.235067 0.24695,0.37043 0.57595,0.65824 0.98753,0.86403 0.42187,0.2058 0.89009,0.309025 1.40457,0.309025 0.4836,0 0.90542,-0.107931 1.26555,-0.324011 0.36013,-0.22637 0.61719,-0.535559 0.77153,-0.926559 v 1.127063 h 2.2071 v -4.476212 c 0,-1.12156 -0.27269,-1.949553 -0.81804,-2.484603 -0.53505,-0.53506 -1.36825,-0.802535 -2.5001,-0.802535 z m -48.57171,0.185002 v 4.506701 c 0,1.07011 0.2315,1.872555 0.69453,2.407605 0.47332,0.52477 1.18867,0.787549 2.1456,0.787549 0.48361,0 0.91534,-0.103225 1.29605,-0.309025 0.39101,-0.20579 0.70488,-0.504036 0.94154,-0.895036 v 1.080554 h 2.26911 V 55.78936 h -2.3306 v 4.198193 c 0,0.50418 -0.14392,0.910367 -0.43202,1.219047 -0.27782,0.30869 -0.64331,0.463021 -1.09605,0.463021 -0.391,0 -0.68404,-0.107931 -0.87954,-0.324011 -0.18522,-0.21608 -0.27802,-0.5503 -0.27802,-1.00304 v -4.55321 z m 57.29211,1.589567 c 0.54535,0 0.96194,0.185618 1.25005,0.556038 0.29839,0.37042 0.44752,0.90538 0.44752,1.60507 0,0.69969 -0.14913,1.239863 -0.44752,1.620573 -0.28811,0.37043 -0.7047,0.555522 -1.25005,0.555522 -0.54534,0 -0.96716,-0.190315 -1.26556,-0.571025 -0.2984,-0.391 -0.44752,-0.936386 -0.44752,-1.636076 0,-0.68939 0.14912,-1.213934 0.44752,-1.574064 0.2984,-0.37042 0.72022,-0.556038 1.26556,-0.556038 z m -61.4748,2.608626 h 0.26251 v 0.262516 c 0,0.48361 -0.13922,0.879351 -0.41703,1.188041 -0.27782,0.29839 -0.6428,0.448035 -1.09554,0.448035 -0.28811,0 -0.53003,-0.0928 -0.72553,-0.278019 -0.18521,-0.18521 -0.27802,-0.416711 -0.27802,-0.694531 0,-0.34984 0.16475,-0.591768 0.49402,-0.725538 0.33955,-0.13376 0.92614,-0.200504 1.75959,-0.200504 z m 53.58794,0 h 0.26252 v 0.262516 c 0,0.48361 -0.13922,0.879351 -0.41703,1.188041 -0.27782,0.29839 -0.6428,0.448035 -1.09554,0.448035 -0.2881,0 -0.53004,-0.0928 -0.72554,-0.278019 -0.18521,-0.18521 -0.27802,-0.416711 -0.27802,-0.694531 0,-0.34984 0.16476,-0.591768 0.49403,-0.725538 0.33955,-0.13376 0.92613,-0.200504 1.75958,-0.200504 z" /></g><path
       d="m 459.96262,44.311622 c -0.0508,-0.412394 -0.3667,-0.742303 -0.77649,-0.8109 -0.55956,-0.09592 -2.04263,-0.196251 -3.45926,1.210698 l -2.41429,2.397766 -2.03729,0.542122 c -0.25073,-0.0061 -0.49303,0.0888 -0.67419,0.262254 l -1.5612,1.494887 -1.10919,1.12681 2.75986,0.159151 1.45239,-0.426674 c 2.01088,-1.792449 3.44226,-2.027552 3.91307,-2.166952 l -3.49964,4.775891 0.0669,2.605547 1.26656,-1.174747 1.4662,-1.54799 c 0.18156,-0.172979 0.28641,-0.411392 0.2912,-0.662103 l 0.54149,-1.984471 2.41429,-2.397775 c 1.41661,-1.40693 1.43124,-2.840125 1.35964,-3.403528 z m -3.45135,1.219001 c 0.94841,-0.924744 1.87681,-0.976592 2.33918,-0.931235 0.0154,2.752803 -3.71481,2.455181 -7.24419,5.713884 z"
       id="path34"
       sodipodi:nodetypes="scsccscccccccccccscsccsc"
       style="fill:url(#linearGradient34);fill-opacity:1;stroke:none;stroke-width:0.0472573"
       inkscape:export-filename="rocket.svg"
       inkscape:export-xdpi="96"
       inkscape:export-ydpi="96" /></g></svg>
