<?xml version="1.0" encoding="UTF-8" standalone="no"?>
<!-- Created with Inkscape (http://www.inkscape.org/) -->

<svg
   width="101.14502mm"
   height="22.922983mm"
   viewBox="0 0 101.14502 22.922983"
   version="1.1"
   id="svg1"
   sodipodi:docname="drawing.svg"
   inkscape:version="1.4.2 (ebf0e940d0, 2025-05-08)"
   xml:space="preserve"
   xmlns:inkscape="http://www.inkscape.org/namespaces/inkscape"
   xmlns:sodipodi="http://sodipodi.sourceforge.net/DTD/sodipodi-0.dtd"
   xmlns:xlink="http://www.w3.org/1999/xlink"
   xmlns="http://www.w3.org/2000/svg"
   xmlns:svg="http://www.w3.org/2000/svg"><sodipodi:namedview
     id="namedview1"
     pagecolor="#ffffff"
     bordercolor="#000000"
     borderopacity="0.25"
     inkscape:showpageshadow="2"
     inkscape:pageopacity="0.0"
     inkscape:pagecheckerboard="0"
     inkscape:deskcolor="#d1d1d1"
     inkscape:document-units="mm"
     inkscape:zoom="0.94615212"
     inkscape:cx="1686.8323"
     inkscape:cy="393.69991"
     inkscape:window-width="1920"
     inkscape:window-height="954"
     inkscape:window-x="0"
     inkscape:window-y="32"
     inkscape:window-maximized="1"
     inkscape:current-layer="g53"><inkscape:page
       x="0"
       y="0"
       width="101.14502"
       height="22.922983"
       id="page2"
       margin="0"
       bleed="0" /></sodipodi:namedview><defs
     id="defs1"><linearGradient
       id="linearGradient67"
       inkscape:collect="always"><stop
         style="stop-color:#46a19c;stop-opacity:1;"
         offset="0"
         id="stop67" /><stop
         style="stop-color:#afafaf;stop-opacity:1;"
         offset="0.59222299"
         id="stop68" /></linearGradient><linearGradient
       id="linearGradient42"
       inkscape:collect="always"><stop
         style="stop-color:#186178;stop-opacity:1;"
         offset="0"
         id="stop41" /><stop
         style="stop-color:#58dede;stop-opacity:1;"
         offset="1"
         id="stop42" /></linearGradient><linearGradient
       id="linearGradient27"
       inkscape:collect="always"><stop
         style="stop-color:#16b8bc;stop-opacity:1;"
         offset="0"
         id="stop27" /><stop
         style="stop-color:#078484;stop-opacity:1;"
         offset="1"
         id="stop28" /></linearGradient><linearGradient
       inkscape:collect="always"
       xlink:href="#linearGradient42"
       id="linearGradient52"
       gradientUnits="userSpaceOnUse"
       gradientTransform="matrix(0.4597331,0,0,0.4597331,304.47671,-13.295083)"
       x1="334.07086"
       y1="238.70747"
       x2="360.2916"
       y2="238.70747" /><linearGradient
       inkscape:collect="always"
       xlink:href="#linearGradient27"
       id="linearGradient53"
       gradientUnits="userSpaceOnUse"
       gradientTransform="matrix(1.0163824,0,0,0.87100474,99.327199,-101.25473)"
       x1="328.94769"
       y1="247.33968"
       x2="348.03394"
       y2="237.8203" /><linearGradient
       inkscape:collect="always"
       xlink:href="#linearGradient27"
       id="linearGradient65"
       gradientUnits="userSpaceOnUse"
       gradientTransform="matrix(1.0163824,0,0,0.87100474,99.327199,-101.25473)"
       x1="328.94769"
       y1="247.33968"
       x2="348.03394"
       y2="237.8203" /><linearGradient
       inkscape:collect="always"
       xlink:href="#linearGradient42"
       id="linearGradient66"
       gradientUnits="userSpaceOnUse"
       gradientTransform="matrix(0.4597331,0,0,0.4597331,304.47671,-13.295083)"
       x1="334.07086"
       y1="238.70747"
       x2="360.2916"
       y2="238.70747" /><linearGradient
       inkscape:collect="always"
       xlink:href="#linearGradient67"
       id="linearGradient68"
       x1="358.8403"
       y1="59.412544"
       x2="453.02615"
       y2="59.412544"
       gradientUnits="userSpaceOnUse" /><linearGradient
       inkscape:collect="always"
       xlink:href="#linearGradient67"
       id="linearGradient2"
       gradientUnits="userSpaceOnUse"
       x1="358.8403"
       y1="59.412544"
       x2="453.02615"
       y2="59.412544" /><linearGradient
       inkscape:collect="always"
       xlink:href="#linearGradient67"
       id="linearGradient3"
       gradientUnits="userSpaceOnUse"
       x1="358.8403"
       y1="59.412544"
       x2="453.02615"
       y2="59.412544" /><linearGradient
       inkscape:collect="always"
       xlink:href="#linearGradient67"
       id="linearGradient4"
       gradientUnits="userSpaceOnUse"
       x1="358.8403"
       y1="59.412544"
       x2="453.02615"
       y2="59.412544" /></defs><g
     inkscape:label="Layer 1"
     inkscape:groupmode="layer"
     id="layer1"
     transform="translate(-499.00491,-44.020733)"><g
       id="g53"><g
         id="g54"
         transform="translate(8.960998,6.4317529)"><path
           id="path48"
           style="fill:url(#linearGradient53);fill-opacity:1;stroke-width:0.294314"
           d="m 462.80156,97.776659 c -14.24329,15.558431 -9.21969,14.117271 -65.6606,15.465131 l 49.60918,0.09 12.40633,0.0225 c 0,0 -7.16493,-2.33482 3.64509,-15.577657 z"
           sodipodi:nodetypes="cccccc" /><g
           id="g51"
           style="fill:#8f8f8f;fill-opacity:1"
           transform="translate(10.129435,46.97976)"><path
             style="fill:#e0e0e0;fill-opacity:1;stroke:none;stroke-width:0.264583"
             d="m 479.31749,47.107003 h 2.79363 l 3.56261,4.904443 -1.55817,1.517281 z"
             id="path49"
             sodipodi:nodetypes="ccccc"
             transform="translate(-39.475926,5.3793951)" /><path
             style="fill:#e0e0e0;fill-opacity:1;stroke:none;stroke-width:0.264583"
             d="m 489.69296,60.959693 h 2.80913 l -5.15545,-7.195125 c 0,0 -0.3269,0.52444 -0.5439,1.317072 -0.25649,0.936899 -0.21182,1.386983 -0.21182,1.386983 z"
             id="path50"
             sodipodi:nodetypes="cccscc"
             transform="translate(-39.475926,5.3793951)" /><path
             id="path51"
             style="font-size:15.4343px;text-align:start;writing-mode:lr-tb;direction:ltr;text-anchor:start;fill:#e0e0e0;fill-opacity:1;stroke:none;stroke-width:1.28619"
             d="M 358.84029,52.486003 V 63.36751 h 7.26984 v -1.960087 h -4.86172 v -8.92142 z m 42.83046,0 V 63.36751 h 2.33061 v -4.244702 c 0,-0.51448 0.1439,-0.92586 0.43201,-1.23455 0.29839,-0.30869 0.68945,-0.463021 1.17306,-0.463021 0.40129,0 0.69431,0.118357 0.87953,0.355017 0.1955,0.23666 0.29352,0.612076 0.29352,1.126546 v 4.46071 h 2.33061 v -4.568714 c 0,-1.07011 -0.22159,-1.867342 -0.66404,-2.392102 -0.44245,-0.53506 -1.1161,-0.802535 -2.02158,-0.802535 -0.51448,0 -0.9827,0.102719 -1.40457,0.308509 -0.41159,0.1955 -0.75101,0.488532 -1.01854,0.879532 v -4.306197 z m 9.36842,0 V 63.36751 h 2.40761 v -4.09019 h 2.59312 c 1.1833,0 2.10409,-0.298246 2.76262,-0.895036 0.65853,-0.5968 0.98806,-1.430512 0.98806,-2.500622 0,-1.07012 -0.32953,-1.903316 -0.98806,-2.500106 -0.65853,-0.59679 -1.57932,-0.895553 -2.76262,-0.895553 z m 23.66057,0 v 4.352706 c -0.22637,-0.391 -0.55016,-0.694458 -0.97203,-0.910538 -0.41158,-0.21608 -0.87459,-0.324012 -1.38906,-0.324012 -0.65853,0 -1.2399,0.159027 -1.74408,0.478007 -0.50419,0.31898 -0.90045,0.777277 -1.18856,1.374077 -0.27782,0.5865 -0.41651,1.270587 -0.41651,2.052587 0,0.78201 0.13869,1.476514 0.41651,2.083594 0.28811,0.59679 0.68437,1.065016 1.18856,1.404566 0.51447,0.32927 1.09584,0.494026 1.74408,0.494026 0.52476,0 0.99298,-0.107931 1.40456,-0.324011 0.42187,-0.22637 0.74567,-0.535558 0.97204,-0.926558 v 1.127063 h 2.3151 V 52.486003 Z m -21.25296,1.837098 h 2.28461 c 0.60708,0 1.05966,0.128266 1.35806,0.385506 0.29839,0.25724 0.44752,0.653498 0.44752,1.188558 0,1.03924 -0.6017,1.559078 -1.80558,1.559078 h -2.28461 z m -42.73745,1.281058 c -0.54535,0 -1.13713,0.0923 -1.77508,0.277503 -0.62766,0.17492 -1.15741,0.395995 -1.58957,0.663525 l 0.61754,1.559078 c 0.41158,-0.23666 0.84382,-0.421762 1.29656,-0.555522 0.45274,-0.13377 0.86413,-0.200503 1.23455,-0.200504 0.48361,0 0.82304,0.0923 1.01854,0.277502 0.19551,0.18522 0.29352,0.504308 0.29352,0.957048 v 0.278019 h -0.40152 c -1.09069,0 -1.94996,0.072 -2.57762,0.216008 -0.62766,0.14405 -1.08545,0.375551 -1.37356,0.694531 -0.27782,0.31898 -0.41652,0.755908 -0.41652,1.311548 0,0.45274 0.11836,0.864646 0.35502,1.235066 0.24694,0.37043 0.57596,0.65824 0.98754,0.86403 0.42187,0.2058 0.89008,0.309025 1.40456,0.309025 0.48361,0 0.90543,-0.107931 1.26556,-0.324011 0.36014,-0.22637 0.6177,-0.535558 0.77204,-0.926558 v 1.127063 h 2.20711 v -4.476213 c 0,-1.12156 -0.27269,-1.949553 -0.81804,-2.484603 -0.53505,-0.53506 -1.36878,-0.802535 -2.50063,-0.802535 z m 18.90686,0 c -0.53506,0 -1.0184,0.107932 -1.45056,0.324012 -0.42187,0.21608 -0.76651,0.529964 -1.03404,0.941544 v -1.080554 h -2.26911 v 7.578349 h 2.3306 v -4.244702 c 0,-0.51448 0.14442,-0.92586 0.43253,-1.23455 0.2984,-0.30869 0.68893,-0.463021 1.17254,-0.463021 0.40129,0 0.69484,0.118357 0.88005,0.355017 0.1955,0.23666 0.29301,0.612076 0.29301,1.126546 v 4.46071 h 2.3306 v -4.568714 c 0,-1.07011 -0.22107,-1.867342 -0.66352,-2.392102 -0.44245,-0.53506 -1.11663,-0.802535 -2.0221,-0.802535 z m 8.14937,0 c -0.81288,0 -1.52771,0.16425 -2.14508,0.49351 -0.61737,0.32927 -1.09603,0.797486 -1.43558,1.404566 -0.33956,0.59679 -0.50901,1.291303 -0.50901,2.083593 0,1.20388 0.35456,2.15595 1.06454,2.85564 0.70998,0.69969 1.68239,1.049548 2.91713,1.049548 0.58651,0 1.14231,-0.0824 1.66708,-0.247013 0.52476,-0.16464 0.957,-0.390918 1.29656,-0.679028 l -0.61753,-1.60507 c -0.29839,0.23666 -0.62741,0.421761 -0.98754,0.555521 -0.34985,0.12347 -0.695,0.185002 -1.03456,0.185002 -0.60708,0 -1.07999,-0.179879 -1.41955,-0.540019 -0.32926,-0.37042 -0.49403,-0.910593 -0.49403,-1.620573 0,-0.70998 0.16477,-1.24494 0.49403,-1.60507 0.33956,-0.36013 0.81247,-0.540535 1.41955,-0.540535 0.33956,0 0.68471,0.06669 1.03456,0.200504 0.36013,0.12347 0.68915,0.303886 0.98754,0.540536 l 0.61753,-1.590084 c -0.31898,-0.28811 -0.7361,-0.514398 -1.25057,-0.679028 -0.51448,-0.17492 -1.04944,-0.262 -1.60507,-0.262 z m 26.53172,0 c -0.54535,0 -1.13714,0.0923 -1.77509,0.277503 -0.62766,0.17492 -1.1574,0.395995 -1.58956,0.663525 l 0.61753,1.559078 c 0.41158,-0.23666 0.8433,-0.421762 1.29604,-0.555522 0.45274,-0.13377 0.86465,-0.200503 1.23507,-0.200504 0.48361,0 0.82304,0.0923 1.01854,0.277502 0.1955,0.18522 0.29353,0.504308 0.29353,0.957048 v 0.278019 h -0.40153 c -1.09069,0 -1.94996,0.072 -2.57762,0.216008 -0.62766,0.14405 -1.08545,0.375551 -1.37356,0.694531 -0.27782,0.31898 -0.41651,0.755908 -0.41651,1.311548 0,0.45274 0.11835,0.864646 0.35501,1.235066 0.24695,0.37043 0.57596,0.65824 0.98754,0.86403 0.42187,0.2058 0.89009,0.309025 1.40457,0.309025 0.4836,0 0.90542,-0.107931 1.26555,-0.324011 0.36013,-0.22637 0.61719,-0.535558 0.77153,-0.926558 v 1.127063 h 2.2071 v -4.476213 c 0,-1.12156 -0.27269,-1.949553 -0.81804,-2.484603 -0.53505,-0.53506 -1.36825,-0.802535 -2.5001,-0.802535 z m -48.57171,0.185002 v 4.506702 c 0,1.07011 0.2315,1.872555 0.69453,2.407605 0.47332,0.52477 1.18867,0.787548 2.1456,0.787548 0.48361,0 0.91534,-0.103225 1.29605,-0.309025 0.39101,-0.20579 0.70488,-0.504036 0.94154,-0.895036 v 1.080555 h 2.26911 v -7.578349 h -2.3306 v 4.198193 c 0,0.50418 -0.14392,0.910367 -0.43202,1.219047 -0.27782,0.30869 -0.64332,0.463021 -1.09606,0.463021 -0.391,0 -0.68403,-0.107931 -0.87953,-0.324011 -0.18522,-0.21608 -0.27802,-0.5503 -0.27802,-1.00304 v -4.55321 z m 57.29211,1.589567 c 0.54535,0 0.96194,0.185618 1.25005,0.556038 0.29839,0.37042 0.44752,0.90538 0.44752,1.60507 0,0.69969 -0.14913,1.239863 -0.44752,1.620573 -0.28811,0.37043 -0.7047,0.555522 -1.25005,0.555522 -0.54534,0 -0.96716,-0.190315 -1.26556,-0.571025 -0.2984,-0.391 -0.44752,-0.936386 -0.44752,-1.636076 0,-0.68939 0.14912,-1.213934 0.44752,-1.574064 0.2984,-0.37042 0.72022,-0.556038 1.26556,-0.556038 z m -61.4748,2.608626 h 0.26251 v 0.262517 c 0,0.48361 -0.13922,0.879351 -0.41703,1.188041 -0.27782,0.29839 -0.6428,0.448034 -1.09554,0.448034 -0.28811,0 -0.53003,-0.0928 -0.72553,-0.278019 -0.18521,-0.18521 -0.27802,-0.416711 -0.27802,-0.694531 0,-0.34984 0.16475,-0.591767 0.49402,-0.725537 0.33955,-0.13376 0.92614,-0.200505 1.75959,-0.200505 z m 53.58794,0 h 0.26252 v 0.262517 c 0,0.48361 -0.13922,0.879351 -0.41703,1.188041 -0.27782,0.29839 -0.6428,0.448034 -1.09554,0.448034 -0.2881,0 -0.53004,-0.0928 -0.72554,-0.278019 -0.18521,-0.18521 -0.27802,-0.416711 -0.27802,-0.694531 0,-0.34984 0.16476,-0.591767 0.49403,-0.725537 0.33955,-0.13376 0.92613,-0.200505 1.75958,-0.200505 z" /></g><path
           d="m 470.09205,91.291382 c -0.0508,-0.412394 -0.3667,-0.742303 -0.77649,-0.8109 -0.55956,-0.09592 -2.04263,-0.196251 -3.45926,1.210698 l -2.41429,2.397766 -2.03729,0.542122 c -0.25073,-0.0061 -0.49303,0.0888 -0.67419,0.262254 l -1.5612,1.494887 -1.10919,1.12681 2.75986,0.159151 1.45239,-0.426674 c 2.01088,-1.792449 3.44226,-2.027552 3.91307,-2.166952 l -3.49964,4.775891 0.0669,2.605545 1.26656,-1.17474 1.4662,-1.547995 c 0.18156,-0.172979 0.28641,-0.411392 0.2912,-0.662103 l 0.54149,-1.984471 2.41429,-2.397775 c 1.41661,-1.40693 1.43124,-2.840125 1.35964,-3.403528 z m -3.45135,1.219001 c 0.94841,-0.924744 1.87681,-0.976592 2.33918,-0.931235 0.0154,2.752803 -3.71481,2.455181 -7.24419,5.713884 z"
           id="path52"
           sodipodi:nodetypes="scsccscccccccccccscsccsc"
           style="fill:url(#linearGradient52);fill-opacity:1;stroke:none;stroke-width:0.0472573"
           inkscape:export-filename="rocket.svg"
           inkscape:export-xdpi="96"
           inkscape:export-ydpi="96" /></g><g
         id="g65"
         transform="translate(130.03518,-46.410577)"
         inkscape:export-filename="logo-dark.svg"
         inkscape:export-xdpi="96"
         inkscape:export-ydpi="96"><path
           id="path61"
           style="fill:url(#linearGradient65);fill-opacity:1;stroke-width:0.294314"
           d="m 462.80156,97.776659 c -14.24329,15.558431 -9.21969,14.117271 -65.6606,15.465131 l 49.60918,0.09 12.40633,0.0225 c 0,0 -7.16493,-2.33482 3.64509,-15.577657 z"
           sodipodi:nodetypes="cccccc" /><g
           id="g64"
           style="fill:url(#linearGradient68);fill-opacity:1"
           transform="translate(10.129435,46.97976)"><path
             style="fill:url(#linearGradient2);fill-opacity:1;stroke:none;stroke-width:0.264583"
             d="m 479.31749,47.107003 h 2.79363 l 3.56261,4.904443 -1.55817,1.517281 z"
             id="path62"
             sodipodi:nodetypes="ccccc"
             transform="translate(-39.475926,5.3793951)" /><path
             style="fill:url(#linearGradient3);fill-opacity:1;stroke:none;stroke-width:0.264583"
             d="m 489.69296,60.959693 h 2.80913 l -5.15545,-7.195125 c 0,0 -0.3269,0.52444 -0.5439,1.317072 -0.25649,0.936899 -0.21182,1.386983 -0.21182,1.386983 z"
             id="path63"
             sodipodi:nodetypes="cccscc"
             transform="translate(-39.475926,5.3793951)" /><path
             id="path64"
             style="font-size:15.4343px;text-align:start;writing-mode:lr-tb;direction:ltr;text-anchor:start;fill:url(#linearGradient4);fill-opacity:1;stroke:none;stroke-width:1.28619"
             d="M 358.84029,52.486003 V 63.36751 h 7.26984 v -1.960087 h -4.86172 v -8.92142 z m 42.83046,0 V 63.36751 h 2.33061 v -4.244702 c 0,-0.51448 0.1439,-0.92586 0.43201,-1.23455 0.29839,-0.30869 0.68945,-0.463021 1.17306,-0.463021 0.40129,0 0.69431,0.118357 0.87953,0.355017 0.1955,0.23666 0.29352,0.612076 0.29352,1.126546 v 4.46071 h 2.33061 v -4.568714 c 0,-1.07011 -0.22159,-1.867342 -0.66404,-2.392102 -0.44245,-0.53506 -1.1161,-0.802535 -2.02158,-0.802535 -0.51448,0 -0.9827,0.102719 -1.40457,0.308509 -0.41159,0.1955 -0.75101,0.488532 -1.01854,0.879532 v -4.306197 z m 9.36842,0 V 63.36751 h 2.40761 v -4.09019 h 2.59312 c 1.1833,0 2.10409,-0.298246 2.76262,-0.895036 0.65853,-0.5968 0.98806,-1.430512 0.98806,-2.500622 0,-1.07012 -0.32953,-1.903316 -0.98806,-2.500106 -0.65853,-0.59679 -1.57932,-0.895553 -2.76262,-0.895553 z m 23.66057,0 v 4.352706 c -0.22637,-0.391 -0.55016,-0.694458 -0.97203,-0.910538 -0.41158,-0.21608 -0.87459,-0.324012 -1.38906,-0.324012 -0.65853,0 -1.2399,0.159027 -1.74408,0.478007 -0.50419,0.31898 -0.90045,0.777277 -1.18856,1.374077 -0.27782,0.5865 -0.41651,1.270587 -0.41651,2.052587 0,0.78201 0.13869,1.476514 0.41651,2.083594 0.28811,0.59679 0.68437,1.065016 1.18856,1.404566 0.51447,0.32927 1.09584,0.494026 1.74408,0.494026 0.52476,0 0.99298,-0.107931 1.40456,-0.324011 0.42187,-0.22637 0.74567,-0.535558 0.97204,-0.926558 v 1.127063 h 2.3151 V 52.486003 Z m -21.25296,1.837098 h 2.28461 c 0.60708,0 1.05966,0.128266 1.35806,0.385506 0.29839,0.25724 0.44752,0.653498 0.44752,1.188558 0,1.03924 -0.6017,1.559078 -1.80558,1.559078 h -2.28461 z m -42.73745,1.281058 c -0.54535,0 -1.13713,0.0923 -1.77508,0.277503 -0.62766,0.17492 -1.15741,0.395995 -1.58957,0.663525 l 0.61754,1.559078 c 0.41158,-0.23666 0.84382,-0.421762 1.29656,-0.555522 0.45274,-0.13377 0.86413,-0.200503 1.23455,-0.200504 0.48361,0 0.82304,0.0923 1.01854,0.277502 0.19551,0.18522 0.29352,0.504308 0.29352,0.957048 v 0.278019 h -0.40152 c -1.09069,0 -1.94996,0.072 -2.57762,0.216008 -0.62766,0.14405 -1.08545,0.375551 -1.37356,0.694531 -0.27782,0.31898 -0.41652,0.755908 -0.41652,1.311548 0,0.45274 0.11836,0.864646 0.35502,1.235066 0.24694,0.37043 0.57596,0.65824 0.98754,0.86403 0.42187,0.2058 0.89008,0.309025 1.40456,0.309025 0.48361,0 0.90543,-0.107931 1.26556,-0.324011 0.36014,-0.22637 0.6177,-0.535558 0.77204,-0.926558 v 1.127063 h 2.20711 v -4.476213 c 0,-1.12156 -0.27269,-1.949553 -0.81804,-2.484603 -0.53505,-0.53506 -1.36878,-0.802535 -2.50063,-0.802535 z m 18.90686,0 c -0.53506,0 -1.0184,0.107932 -1.45056,0.324012 -0.42187,0.21608 -0.76651,0.529964 -1.03404,0.941544 v -1.080554 h -2.26911 v 7.578349 h 2.3306 v -4.244702 c 0,-0.51448 0.14442,-0.92586 0.43253,-1.23455 0.2984,-0.30869 0.68893,-0.463021 1.17254,-0.463021 0.40129,0 0.69484,0.118357 0.88005,0.355017 0.1955,0.23666 0.29301,0.612076 0.29301,1.126546 v 4.46071 h 2.3306 v -4.568714 c 0,-1.07011 -0.22107,-1.867342 -0.66352,-2.392102 -0.44245,-0.53506 -1.11663,-0.802535 -2.0221,-0.802535 z m 8.14937,0 c -0.81288,0 -1.52771,0.16425 -2.14508,0.49351 -0.61737,0.32927 -1.09603,0.797486 -1.43558,1.404566 -0.33956,0.59679 -0.50901,1.291303 -0.50901,2.083593 0,1.20388 0.35456,2.15595 1.06454,2.85564 0.70998,0.69969 1.68239,1.049548 2.91713,1.049548 0.58651,0 1.14231,-0.0824 1.66708,-0.247013 0.52476,-0.16464 0.957,-0.390918 1.29656,-0.679028 l -0.61753,-1.60507 c -0.29839,0.23666 -0.62741,0.421761 -0.98754,0.555521 -0.34985,0.12347 -0.695,0.185002 -1.03456,0.185002 -0.60708,0 -1.07999,-0.179879 -1.41955,-0.540019 -0.32926,-0.37042 -0.49403,-0.910593 -0.49403,-1.620573 0,-0.70998 0.16477,-1.24494 0.49403,-1.60507 0.33956,-0.36013 0.81247,-0.540535 1.41955,-0.540535 0.33956,0 0.68471,0.06669 1.03456,0.200504 0.36013,0.12347 0.68915,0.303886 0.98754,0.540536 l 0.61753,-1.590084 c -0.31898,-0.28811 -0.7361,-0.514398 -1.25057,-0.679028 -0.51448,-0.17492 -1.04944,-0.262 -1.60507,-0.262 z m 26.53172,0 c -0.54535,0 -1.13714,0.0923 -1.77509,0.277503 -0.62766,0.17492 -1.1574,0.395995 -1.58956,0.663525 l 0.61753,1.559078 c 0.41158,-0.23666 0.8433,-0.421762 1.29604,-0.555522 0.45274,-0.13377 0.86465,-0.200503 1.23507,-0.200504 0.48361,0 0.82304,0.0923 1.01854,0.277502 0.1955,0.18522 0.29353,0.504308 0.29353,0.957048 v 0.278019 h -0.40153 c -1.09069,0 -1.94996,0.072 -2.57762,0.216008 -0.62766,0.14405 -1.08545,0.375551 -1.37356,0.694531 -0.27782,0.31898 -0.41651,0.755908 -0.41651,1.311548 0,0.45274 0.11835,0.864646 0.35501,1.235066 0.24695,0.37043 0.57596,0.65824 0.98754,0.86403 0.42187,0.2058 0.89009,0.309025 1.40457,0.309025 0.4836,0 0.90542,-0.107931 1.26555,-0.324011 0.36013,-0.22637 0.61719,-0.535558 0.77153,-0.926558 v 1.127063 h 2.2071 v -4.476213 c 0,-1.12156 -0.27269,-1.949553 -0.81804,-2.484603 -0.53505,-0.53506 -1.36825,-0.802535 -2.5001,-0.802535 z m -48.57171,0.185002 v 4.506702 c 0,1.07011 0.2315,1.872555 0.69453,2.407605 0.47332,0.52477 1.18867,0.787548 2.1456,0.787548 0.48361,0 0.91534,-0.103225 1.29605,-0.309025 0.39101,-0.20579 0.70488,-0.504036 0.94154,-0.895036 v 1.080555 h 2.26911 v -7.578349 h -2.3306 v 4.198193 c 0,0.50418 -0.14392,0.910367 -0.43202,1.219047 -0.27782,0.30869 -0.64332,0.463021 -1.09606,0.463021 -0.391,0 -0.68403,-0.107931 -0.87953,-0.324011 -0.18522,-0.21608 -0.27802,-0.5503 -0.27802,-1.00304 v -4.55321 z m 57.29211,1.589567 c 0.54535,0 0.96194,0.185618 1.25005,0.556038 0.29839,0.37042 0.44752,0.90538 0.44752,1.60507 0,0.69969 -0.14913,1.239863 -0.44752,1.620573 -0.28811,0.37043 -0.7047,0.555522 -1.25005,0.555522 -0.54534,0 -0.96716,-0.190315 -1.26556,-0.571025 -0.2984,-0.391 -0.44752,-0.936386 -0.44752,-1.636076 0,-0.68939 0.14912,-1.213934 0.44752,-1.574064 0.2984,-0.37042 0.72022,-0.556038 1.26556,-0.556038 z m -61.4748,2.608626 h 0.26251 v 0.262517 c 0,0.48361 -0.13922,0.879351 -0.41703,1.188041 -0.27782,0.29839 -0.6428,0.448034 -1.09554,0.448034 -0.28811,0 -0.53003,-0.0928 -0.72553,-0.278019 -0.18521,-0.18521 -0.27802,-0.416711 -0.27802,-0.694531 0,-0.34984 0.16475,-0.591767 0.49402,-0.725537 0.33955,-0.13376 0.92614,-0.200505 1.75959,-0.200505 z m 53.58794,0 h 0.26252 v 0.262517 c 0,0.48361 -0.13922,0.879351 -0.41703,1.188041 -0.27782,0.29839 -0.6428,0.448034 -1.09554,0.448034 -0.2881,0 -0.53004,-0.0928 -0.72554,-0.278019 -0.18521,-0.18521 -0.27802,-0.416711 -0.27802,-0.694531 0,-0.34984 0.16476,-0.591767 0.49403,-0.725537 0.33955,-0.13376 0.92613,-0.200505 1.75958,-0.200505 z" /></g><path
           d="m 470.09205,91.291382 c -0.0508,-0.412394 -0.3667,-0.742303 -0.77649,-0.8109 -0.55956,-0.09592 -2.04263,-0.196251 -3.45926,1.210698 l -2.41429,2.397766 -2.03729,0.542122 c -0.25073,-0.0061 -0.49303,0.0888 -0.67419,0.262254 l -1.5612,1.494887 -1.10919,1.12681 2.75986,0.159151 1.45239,-0.426674 c 2.01088,-1.792449 3.44226,-2.027552 3.91307,-2.166952 l -3.49964,4.775891 0.0669,2.605545 1.26656,-1.17474 1.4662,-1.547995 c 0.18156,-0.172979 0.28641,-0.411392 0.2912,-0.662103 l 0.54149,-1.984471 2.41429,-2.397775 c 1.41661,-1.40693 1.43124,-2.840125 1.35964,-3.403528 z m -3.45135,1.219001 c 0.94841,-0.924744 1.87681,-0.976592 2.33918,-0.931235 0.0154,2.752803 -3.71481,2.455181 -7.24419,5.713884 z"
           id="path65"
           sodipodi:nodetypes="scsccscccccccccccscsccsc"
           style="fill:url(#linearGradient66);fill-opacity:1;stroke:none;stroke-width:0.0472573"
           inkscape:export-filename="rocket.svg"
           inkscape:export-xdpi="96"
           inkscape:export-ydpi="96" /></g></g></g></svg>
