<?xml version="1.0" encoding="UTF-8" standalone="no"?>
<!-- Created with Inkscape (http://www.inkscape.org/) -->

<svg
   width="31.343887mm"
   height="32.312046mm"
   viewBox="0 0 31.343887 32.312046"
   version="1.1"
   id="svg1"
   sodipodi:docname="drawing.svg"
   inkscape:version="1.4.2 (ebf0e940d0, 2025-05-08)"
   xml:space="preserve"
   xmlns:inkscape="http://www.inkscape.org/namespaces/inkscape"
   xmlns:sodipodi="http://sodipodi.sourceforge.net/DTD/sodipodi-0.dtd"
   xmlns:xlink="http://www.w3.org/1999/xlink"
   xmlns="http://www.w3.org/2000/svg"
   xmlns:svg="http://www.w3.org/2000/svg"><sodipodi:namedview
     id="namedview1"
     pagecolor="#ffffff"
     bordercolor="#000000"
     borderopacity="0.25"
     inkscape:showpageshadow="2"
     inkscape:pageopacity="0.0"
     inkscape:pagecheckerboard="0"
     inkscape:deskcolor="#d1d1d1"
     inkscape:document-units="mm"
     inkscape:zoom="1.8923042"
     inkscape:cx="1145.1647"
     inkscape:cy="872.7455"
     inkscape:window-width="1920"
     inkscape:window-height="954"
     inkscape:window-x="0"
     inkscape:window-y="32"
     inkscape:window-maximized="1"
     inkscape:current-layer="layer1"><inkscape:page
       x="0"
       y="0"
       width="31.343887"
       height="32.312046"
       id="page2"
       margin="0"
       bleed="0" /></sodipodi:namedview><defs
     id="defs1"><linearGradient
       id="linearGradient27"
       inkscape:collect="always"><stop
         style="stop-color:#16b8bc;stop-opacity:1;"
         offset="0"
         id="stop27" /><stop
         style="stop-color:#078484;stop-opacity:1;"
         offset="1"
         id="stop28" /></linearGradient><linearGradient
       id="linearGradient25"
       inkscape:collect="always"><stop
         style="stop-color:#676767;stop-opacity:1;"
         offset="0"
         id="stop25" /><stop
         style="stop-color:#8ee8e8;stop-opacity:1;"
         offset="1"
         id="stop26" /></linearGradient><linearGradient
       inkscape:collect="always"
       xlink:href="#linearGradient25"
       id="linearGradient26"
       x1="334.07086"
       y1="238.70747"
       x2="360.2916"
       y2="238.70747"
       gradientUnits="userSpaceOnUse" /><linearGradient
       inkscape:collect="always"
       xlink:href="#linearGradient27"
       id="linearGradient28"
       x1="328.94769"
       y1="247.33968"
       x2="350.29974"
       y2="247.33968"
       gradientUnits="userSpaceOnUse" /></defs><g
     inkscape:label="Layer 1"
     inkscape:groupmode="layer"
     id="layer1"
     transform="translate(-328.9477,-225.62307)"><path
       d="m 360.24237,227.49388 c -0.11046,-0.89703 -0.79764,-1.61464 -1.68902,-1.76385 -1.21713,-0.20865 -4.44307,-0.42688 -7.52449,2.63348 l -5.25149,5.21556 -4.43147,1.17921 c -0.54538,-0.0133 -1.07244,0.19316 -1.46648,0.57045 l -3.39589,3.25164 -2.41268,2.45101 6.00318,0.34618 3.1592,-0.92809 c 4.37402,-3.89889 7.48751,-4.41028 8.51161,-4.7135 l -7.61233,10.3884 0.14544,5.66752 2.75499,-2.55528 3.18924,-3.36715 c 0.39493,-0.37626 0.62298,-0.89485 0.6334,-1.44019 l 1.17785,-4.31657 5.2515,-5.21558 c 3.08138,-3.06032 3.1132,-6.17777 2.95746,-7.40327 z m -7.50731,2.65154 c 2.06297,-2.01148 4.0824,-2.12426 5.08814,-2.0256 0.0335,5.98783 -8.08036,5.34045 -15.75739,12.4287 z"
       id="path24-2-0"
       sodipodi:nodetypes="ccsccscccccccccccscsccs"
       style="fill:url(#linearGradient26);fill-opacity:1;stroke-width:0.102793"
       inkscape:export-filename="rocket.svg"
       inkscape:export-xdpi="96"
       inkscape:export-ydpi="96" /><path
       id="path25-1-2"
       style="fill:url(#linearGradient28);fill-opacity:1;stroke-width:0.312804"
       d="m 350.29973,236.74424 c -1.73258,0.49841 -3.90102,1.89968 -6.3083,4.33417 l -15.04373,16.8567 17.64653,-16.38926 z"
       sodipodi:nodetypes="ccccc" /></g></svg>
